<svg width="932" height="56" viewBox="0 0 932 56" fill="none" xmlns="http://www.w3.org/2000/svg">
<path fill-rule="evenodd" clip-rule="evenodd" d="M22.6667 13.6667C23.219 13.6667 23.6667 14.1145 23.6667 14.6667V16.3334H32.3333V14.6667C32.3333 14.1145 32.781 13.6667 33.3333 13.6667C33.8856 13.6667 34.3333 14.1145 34.3333 14.6667V16.3334H37.3333C39.3584 16.3334 41 17.975 41 20.0001V38.6667C41 40.6918 39.3584 42.3334 37.3333 42.3334H18.6667C16.6416 42.3334 15 40.6918 15 38.6667V20.0001C15 17.975 16.6416 16.3334 18.6667 16.3334H21.6667V14.6667C21.6667 14.1145 22.1144 13.6667 22.6667 13.6667ZM21.6667 18.3334H18.6667C17.7462 18.3334 17 19.0796 17 20.0001V24.3334H39V20.0001C39 19.0796 38.2538 18.3334 37.3333 18.3334H34.3333V20.0001C34.3333 20.5524 33.8856 21.0001 33.3333 21.0001C32.781 21.0001 32.3333 20.5524 32.3333 20.0001V18.3334H23.6667V20.0001C23.6667 20.5524 23.219 21.0001 22.6667 21.0001C22.1144 21.0001 21.6667 20.5524 21.6667 20.0001V18.3334ZM39 26.3334H17V38.6667C17 39.5872 17.7462 40.3334 18.6667 40.3334H37.3333C38.2538 40.3334 39 39.5872 39 38.6667V26.3334Z" fill="white"/>
<path fill-rule="evenodd" clip-rule="evenodd" d="M85.3334 15.6667C85.2449 15.6667 85.1602 15.7019 85.0977 15.7644C85.0351 15.8269 85 15.9117 85 16.0001V27.0001H99V16.0001C99 15.9117 98.9649 15.8269 98.9024 15.7644C98.8399 15.7019 98.7551 15.6667 98.6667 15.6667H95.6667V20.0001C95.6667 20.5524 95.219 21.0001 94.6667 21.0001C94.1144 21.0001 93.6667 20.5524 93.6667 20.0001V15.6667H90.3334V17.3334C90.3334 17.8857 89.8856 18.3334 89.3334 18.3334C88.7811 18.3334 88.3334 17.8857 88.3334 17.3334V15.6667H85.3334ZM85.3334 13.6667C84.7145 13.6667 84.121 13.9126 83.6834 14.3502C83.2459 14.7878 83 15.3812 83 16.0001V27.2252C82.761 27.3386 82.5407 27.4929 82.3501 27.6835C81.9125 28.1211 81.6667 28.7146 81.6667 29.3334V30.6667C81.6667 31.6392 82.053 32.5718 82.7406 33.2595C83.4283 33.9471 84.3609 34.3334 85.3334 34.3334H88C88.0884 34.3334 88.1732 34.3685 88.2357 34.431C88.2982 34.4936 88.3334 34.5783 88.3334 34.6667V38.5334C88.3334 39.5059 88.7197 40.4385 89.4073 41.1261C90.0949 41.8138 91.0276 42.2001 92 42.2001C92.9725 42.2001 93.9051 41.8138 94.5927 41.1261C95.2804 40.4385 95.6667 39.5059 95.6667 38.5334V34.6667C95.6667 34.5783 95.7018 34.4936 95.7643 34.431C95.8268 34.3685 95.9116 34.3334 96 34.3334H98.6667C99.6391 34.3334 100.572 33.9471 101.259 33.2595C101.947 32.5718 102.333 31.6392 102.333 30.6667V29.3334C102.333 28.7146 102.088 28.1211 101.65 27.6835C101.459 27.4929 101.239 27.3386 101 27.2252V16.0001C101 15.3812 100.754 14.7878 100.317 14.3502C99.879 13.9126 99.2855 13.6667 98.6667 13.6667H85.3334ZM84 29.0001C83.9116 29.0001 83.8268 29.0352 83.7643 29.0977C83.7018 29.1602 83.6667 29.245 83.6667 29.3334V30.6667C83.6667 31.1088 83.8423 31.5327 84.1548 31.8453C84.4674 32.1578 84.8913 32.3334 85.3334 32.3334H88C88.6189 32.3334 89.2123 32.5792 89.6499 33.0168C90.0875 33.4544 90.3334 34.0479 90.3334 34.6667V38.5334C90.3334 38.9754 90.5089 39.3994 90.8215 39.7119C91.1341 40.0245 91.558 40.2001 92 40.2001C92.442 40.2001 92.866 40.0245 93.1785 39.7119C93.4911 39.3994 93.6667 38.9754 93.6667 38.5334V34.6667C93.6667 34.0479 93.9125 33.4544 94.3501 33.0168C94.7877 32.5792 95.3812 32.3334 96 32.3334H98.6667C99.1087 32.3334 99.5326 32.1578 99.8452 31.8453C100.158 31.5327 100.333 31.1088 100.333 30.6667V29.3334C100.333 29.245 100.298 29.1602 100.236 29.0977C100.173 29.0352 100.088 29.0001 100 29.0001H84Z" fill="white"/>
<path fill-rule="evenodd" clip-rule="evenodd" d="M150.667 13.6667C151.219 13.6667 151.667 14.1145 151.667 14.6667V16.3334H160.333V14.6667C160.333 14.1145 160.781 13.6667 161.333 13.6667C161.886 13.6667 162.333 14.1145 162.333 14.6667V16.3334H165.333C167.358 16.3334 169 17.975 169 20.0001V38.6667C169 40.6918 167.358 42.3334 165.333 42.3334H146.667C144.642 42.3334 143 40.6918 143 38.6667V20.0001C143 17.975 144.642 16.3334 146.667 16.3334H149.667V14.6667C149.667 14.1145 150.114 13.6667 150.667 13.6667ZM146.667 18.3334C145.746 18.3334 145 19.0796 145 20.0001V38.6667C145 39.5872 145.746 40.3334 146.667 40.3334H165.333C166.254 40.3334 167 39.5872 167 38.6667V20.0001C167 19.0796 166.254 18.3334 165.333 18.3334H146.667ZM156 23.6667C155.08 23.6667 154.333 24.4129 154.333 25.3334C154.333 26.2539 155.08 27.0001 156 27.0001C156.92 27.0001 157.667 26.2539 157.667 25.3334C157.667 24.4129 156.92 23.6667 156 23.6667ZM152.333 25.3334C152.333 23.3084 153.975 21.6667 156 21.6667C158.025 21.6667 159.667 23.3084 159.667 25.3334C159.667 27.3585 158.025 29.0001 156 29.0001C153.975 29.0001 152.333 27.3585 152.333 25.3334ZM149.407 33.4074C150.095 32.7197 151.028 32.3334 152 32.3334H160C160.972 32.3334 161.905 32.7197 162.593 33.4074C163.28 34.095 163.667 35.0276 163.667 36.0001C163.667 36.5524 163.219 37.0001 162.667 37.0001C162.114 37.0001 161.667 36.5524 161.667 36.0001C161.667 35.5581 161.491 35.1341 161.179 34.8216C160.866 34.509 160.442 34.3334 160 34.3334H152C151.558 34.3334 151.134 34.509 150.821 34.8216C150.509 35.1341 150.333 35.5581 150.333 36.0001C150.333 36.5524 149.886 37.0001 149.333 37.0001C148.781 37.0001 148.333 36.5524 148.333 36.0001C148.333 35.0276 148.72 34.095 149.407 33.4074Z" fill="white"/>
<path fill-rule="evenodd" clip-rule="evenodd" d="M206.741 18.7407C207.428 18.0531 208.361 17.6667 209.333 17.6667H230.667C231.639 17.6667 232.572 18.0531 233.259 18.7407C233.947 19.4283 234.333 20.361 234.333 21.3334V24.0001C234.333 24.5524 233.886 25.0001 233.333 25.0001C232.538 25.0001 231.775 25.3162 231.212 25.8788C230.649 26.4414 230.333 27.2044 230.333 28.0001C230.333 28.7957 230.649 29.5588 231.212 30.1214C231.775 30.684 232.538 31.0001 233.333 31.0001C233.886 31.0001 234.333 31.4478 234.333 32.0001V34.6667C234.333 35.6392 233.947 36.5718 233.259 37.2595C232.572 37.9471 231.639 38.3334 230.667 38.3334H209.333C208.361 38.3334 207.428 37.9471 206.741 37.2595C206.053 36.5718 205.667 35.6392 205.667 34.6667V32.0001C205.667 31.4478 206.114 31.0001 206.667 31.0001C207.462 31.0001 208.225 30.684 208.788 30.1214C209.351 29.5588 209.667 28.7957 209.667 28.0001C209.667 27.2044 209.351 26.4414 208.788 25.8788C208.225 25.3162 207.462 25.0001 206.667 25.0001C206.114 25.0001 205.667 24.5524 205.667 24.0001V21.3334C205.667 20.361 206.053 19.4283 206.741 18.7407ZM222.333 36.3334V34.6667C222.333 34.1145 221.886 33.6667 221.333 33.6667C220.781 33.6667 220.333 34.1145 220.333 34.6667V36.3334H209.333C208.891 36.3334 208.467 36.1578 208.155 35.8453C207.842 35.5327 207.667 35.1088 207.667 34.6667V32.8991C208.62 32.7044 209.504 32.234 210.202 31.5356C211.14 30.5979 211.667 29.3262 211.667 28.0001C211.667 26.674 211.14 25.4022 210.202 24.4645C209.504 23.7662 208.62 23.2957 207.667 23.1011V21.3334C207.667 20.8914 207.842 20.4675 208.155 20.1549C208.467 19.8423 208.891 19.6667 209.333 19.6667H220.333V21.3334C220.333 21.8857 220.781 22.3334 221.333 22.3334C221.886 22.3334 222.333 21.8857 222.333 21.3334V19.6667H230.667C231.109 19.6667 231.533 19.8423 231.845 20.1549C232.158 20.4675 232.333 20.8914 232.333 21.3334V23.1011C231.38 23.2957 230.496 23.7662 229.798 24.4645C228.86 25.4022 228.333 26.674 228.333 28.0001C228.333 29.3262 228.86 30.5979 229.798 31.5356C230.496 32.234 231.38 32.7044 232.333 32.8991V34.6667C232.333 35.1088 232.158 35.5327 231.845 35.8453C231.533 36.1578 231.109 36.3334 230.667 36.3334H222.333ZM221.333 25.6667C221.886 25.6667 222.333 26.1145 222.333 26.6667V29.3334C222.333 29.8857 221.886 30.3334 221.333 30.3334C220.781 30.3334 220.333 29.8857 220.333 29.3334V26.6667C220.333 26.1145 220.781 25.6667 221.333 25.6667Z" fill="white"/>
<path fill-rule="evenodd" clip-rule="evenodd" d="M283.293 15.2929C283.683 14.9024 284.317 14.9024 284.707 15.2929L291.374 21.9596C291.764 22.3501 291.764 22.9832 291.374 23.3738C290.983 23.7643 290.35 23.7643 289.96 23.3738L285 18.4142V32C285 32.5523 284.552 33 284 33C283.448 33 283 32.5523 283 32V18.4142L278.04 23.3738C277.65 23.7643 277.017 23.7643 276.626 23.3738C276.236 22.9832 276.236 22.3501 276.626 21.9596L283.293 15.2929ZM272 31C272.552 31 273 31.4477 273 32V37.3333C273 37.7754 273.176 38.1993 273.488 38.5118C273.801 38.8244 274.225 39 274.667 39H293.333C293.775 39 294.199 38.8244 294.512 38.5118C294.824 38.1993 295 37.7754 295 37.3333V32C295 31.4477 295.448 31 296 31C296.552 31 297 31.4477 297 32V37.3333C297 38.3058 296.614 39.2384 295.926 39.9261C295.238 40.6137 294.306 41 293.333 41H274.667C273.694 41 272.762 40.6137 272.074 39.9261C271.386 39.2384 271 38.3058 271 37.3333V32C271 31.4477 271.448 31 272 31Z" fill="white"/>
<path fill-rule="evenodd" clip-rule="evenodd" d="M348 15.6667C341.189 15.6667 335.667 21.1886 335.667 28.0001C335.667 34.8116 341.189 40.3334 348 40.3334C354.812 40.3334 360.333 34.8116 360.333 28.0001C360.333 21.1886 354.812 15.6667 348 15.6667ZM333.667 28.0001C333.667 20.084 340.084 13.6667 348 13.6667C355.916 13.6667 362.333 20.084 362.333 28.0001C362.333 35.9162 355.916 42.3334 348 42.3334C340.084 42.3334 333.667 35.9162 333.667 28.0001ZM348 21.6667C348.552 21.6667 349 22.1145 349 22.6667V28.0001C349 28.5524 348.552 29.0001 348 29.0001C347.448 29.0001 347 28.5524 347 28.0001V22.6667C347 22.1145 347.448 21.6667 348 21.6667ZM347 33.3334C347 32.7811 347.448 32.3334 348 32.3334H348.013C348.566 32.3334 349.013 32.7811 349.013 33.3334C349.013 33.8857 348.566 34.3334 348.013 34.3334H348C347.448 34.3334 347 33.8857 347 33.3334Z" fill="white"/>
<path fill-rule="evenodd" clip-rule="evenodd" d="M423.374 19.2929C423.764 19.6834 423.764 20.3166 423.374 20.7071L408.707 35.3738C408.317 35.7643 407.683 35.7643 407.293 35.3738L400.626 28.7071C400.236 28.3166 400.236 27.6834 400.626 27.2929C401.017 26.9024 401.65 26.9024 402.04 27.2929L408 33.2525L421.96 19.2929C422.35 18.9024 422.983 18.9024 423.374 19.2929Z" fill="white"/>
<path fill-rule="evenodd" clip-rule="evenodd" d="M470.667 15.6667C470.225 15.6667 469.801 15.8423 469.488 16.1549C469.176 16.4675 469 16.8914 469 17.3334V40.3334H483V17.3334C483 16.8914 482.824 16.4675 482.512 16.1549C482.199 15.8423 481.775 15.6667 481.333 15.6667H470.667ZM485 23.0001V17.3334C485 16.361 484.614 15.4283 483.926 14.7407C483.238 14.0531 482.306 13.6667 481.333 13.6667H470.667C469.694 13.6667 468.762 14.0531 468.074 14.7407C467.386 15.4283 467 16.361 467 17.3334V27.0001H465.333C464.361 27.0001 463.428 27.3864 462.741 28.074C462.053 28.7617 461.667 29.6943 461.667 30.6667V38.6667C461.667 39.6392 462.053 40.5718 462.741 41.2595C463.428 41.9471 464.361 42.3334 465.333 42.3334H486.667C487.639 42.3334 488.572 41.9471 489.259 41.2595C489.947 40.5718 490.333 39.6392 490.333 38.6667V26.6667C490.333 25.6943 489.947 24.7617 489.259 24.074C488.572 23.3864 487.639 23.0001 486.667 23.0001H485ZM485 25.0001V40.3334H486.667C487.109 40.3334 487.533 40.1578 487.845 39.8453C488.158 39.5327 488.333 39.1088 488.333 38.6667V26.6667C488.333 26.2247 488.158 25.8008 487.845 25.4882C487.533 25.1757 487.109 25.0001 486.667 25.0001H485ZM467 29.0001H465.333C464.891 29.0001 464.467 29.1757 464.155 29.4882C463.842 29.8008 463.667 30.2247 463.667 30.6667V38.6667C463.667 39.1088 463.842 39.5327 464.155 39.8453C464.467 40.1578 464.891 40.3334 465.333 40.3334H467V29.0001ZM472.333 20.0001C472.333 19.4478 472.781 19.0001 473.333 19.0001H478.667C479.219 19.0001 479.667 19.4478 479.667 20.0001C479.667 20.5524 479.219 21.0001 478.667 21.0001H473.333C472.781 21.0001 472.333 20.5524 472.333 20.0001ZM472.333 25.3334C472.333 24.7811 472.781 24.3334 473.333 24.3334H478.667C479.219 24.3334 479.667 24.7811 479.667 25.3334C479.667 25.8857 479.219 26.3334 478.667 26.3334H473.333C472.781 26.3334 472.333 25.8857 472.333 25.3334ZM472.333 30.6667C472.333 30.1145 472.781 29.6667 473.333 29.6667H478.667C479.219 29.6667 479.667 30.1145 479.667 30.6667C479.667 31.219 479.219 31.6667 478.667 31.6667H473.333C472.781 31.6667 472.333 31.219 472.333 30.6667ZM472.333 36.0001C472.333 35.4478 472.781 35.0001 473.333 35.0001H478.667C479.219 35.0001 479.667 35.4478 479.667 36.0001C479.667 36.5524 479.219 37.0001 478.667 37.0001H473.333C472.781 37.0001 472.333 36.5524 472.333 36.0001Z" fill="white"/>
<path fill-rule="evenodd" clip-rule="evenodd" d="M529.333 21C528.413 21 527.667 21.7462 527.667 22.6667V33.3333C527.667 34.2538 528.413 35 529.333 35H542.667C543.587 35 544.333 34.2538 544.333 33.3333V29.347C544.333 29.3373 544.333 29.3276 544.333 29.3178V26.019C544.333 26.0069 544.333 25.9949 544.333 25.9829V22.6667C544.333 21.7462 543.587 21 542.667 21H529.333ZM546.333 24.2588V22.6667C546.333 20.6416 544.692 19 542.667 19H529.333C527.308 19 525.667 20.6416 525.667 22.6667V33.3333C525.667 35.3584 527.308 37 529.333 37H542.667C544.692 37 546.333 35.3584 546.333 33.3333V31.2019L551.743 34.8085C551.994 34.9755 552.286 35.0713 552.587 35.0858C552.888 35.1002 553.188 35.0326 553.453 34.8903C553.719 34.748 553.941 34.5363 554.096 34.2777C554.251 34.0191 554.333 33.7233 554.333 33.4219V22.4936C554.333 22.4935 554.333 22.4937 554.333 22.4936C554.333 22.2005 554.256 21.9122 554.109 21.6585C553.962 21.4046 553.751 21.194 553.497 21.048C553.243 20.9019 552.954 20.8255 552.661 20.8265C552.368 20.8275 552.08 20.9058 551.827 21.0536L546.333 24.2588ZM546.333 26.5743V28.7982L552.333 32.7982V23.0735L546.333 26.5743Z" fill="white"/>
</svg>
